<?xml version="1.0" standalone="no"?>
<!DOCTYPE svg PUBLIC "-//W3C//DTD SVG 20010904//EN"
 "http://www.w3.org/TR/2001/REC-SVG-20010904/DTD/svg10.dtd">
<svg version="1.0" xmlns="http://www.w3.org/2000/svg"
 width="866.000000pt" height="650.000000pt" viewBox="0 0 866.000000 650.000000"
 preserveAspectRatio="xMidYMid meet">

<g transform="translate(0.000000,650.000000) scale(0.100000,-0.100000)"
fill="#000000" stroke="none">
<path d="M3112 5017 l-1212 -1212 280 -280 280 -280 -282 -282 -283 -283 1215
-1215 1215 -1215 1215 1215 1215 1215 -280 280 -280 280 280 280 280 280
-1215 1215 -1215 1215 -1213 -1213z m2350 -74 c621 -621 1128 -1133 1128
-1138 0 -6 -107 -117 -238 -248 l-237 -237 -890 890 c-489 490 -894 890 -900
890 -5 0 -135 -125 -287 -277 l-277 -277 -239 239 -239 240 521 523 c286 287
523 522 526 522 3 0 512 -507 1132 -1127z m-2352 -1048 l-575 -575 -240 240
-240 240 575 575 575 575 240 -240 240 -240 -575 -575z m2684 -896 l-242 -242
-851 850 c-468 468 -851 854 -851 859 0 5 107 116 237 246 l238 238 855 -855
855 -855 -241 -241z m-612 -611 l-292 -293 -855 855 -855 855 292 292 293 293
855 -855 855 -855 -293 -292z m-1224 479 l852 -852 -238 -238 c-130 -130 -242
-237 -247 -237 -6 0 -393 382 -860 850 l-850 850 240 240 c132 132 242 240
245 240 3 0 389 -384 858 -853z m-521 -599 l893 -893 280 280 280 280 240
-240 240 -240 -523 -523 -522 -522 -1135 1135 -1135 1135 240 240 c132 132
242 240 245 240 3 0 407 -402 897 -892z m2585 -160 l-572 -573 -240 240 -240
240 572 573 573 572 240 -240 240 -240 -573 -572z"/>
</g>
</svg>
